<?xml version="1.0" ?><svg height="48" viewBox="0 0 48 48" width="48" xmlns="http://www.w3.org/2000/svg"><defs><style>.cls-1{fill:#a263e5;}.cls-2{fill:#f1f2f2;}.cls-3{fill:#d0d7df;}.cls-4{fill:#8659cb;}.cls-5{fill:#a4b0c0;}</style></defs><title/><g data-name="20-Ig" id="_20-Ig"><g data-name="&lt;Group&gt;" id="_Group_"><rect class="cls-1" height="46" rx="8" ry="8" width="46" x="1" y="1"/></g><g data-name="&lt;Group&gt;" id="_Group_2"><circle class="cls-2" cx="35" cy="8" r="2"/><circle class="cls-2" cx="24" cy="26" r="7"/><path class="cls-3" d="M24,15A11,11,0,1,1,13,26,10.994,10.994,0,0,1,24,15Zm7,11a7,7,0,1,0-7,7A6.995,6.995,0,0,0,31,26Z"/><path class="cls-4" d="M24,38A12,12,0,1,1,36,26,12.013,12.013,0,0,1,24,38Zm0-22A10,10,0,1,0,34,26,10.011,10.011,0,0,0,24,16Z"/><path class="cls-5" d="M24,34a8,8,0,1,1,8-8A8.009,8.009,0,0,1,24,34Zm0-14a6,6,0,1,0,6,6A6.006,6.006,0,0,0,24,20Z"/></g></g></svg>